<svg width="72" height="70" viewBox="0 0 72 70" fill="none" xmlns="http://www.w3.org/2000/svg">
<path d="M71.3239 46.4395C62.8502 42.6256 54.1995 39.1661 45.4407 35.913C53.6115 35.1068 61.7517 34.2031 69.8539 33.0532C71.2355 32.8566 70.912 30.5272 69.5303 30.6064C59.6361 31.1566 49.78 32.2966 39.935 33.3579C47.2368 28.8765 54.6069 24.4865 62.0459 20.188C63.878 19.1265 62.232 16.4039 60.3711 17.4265C53.6633 21.1086 47.0573 24.9514 40.5527 28.9551C45.183 22.3705 49.8696 15.8179 54.6109 9.2993C54.9398 8.79331 54.8266 8.11818 54.3504 7.74861C53.8741 7.37904 53.1951 7.4377 52.7887 7.88424C48.2952 13.6435 43.9292 19.5111 39.6907 25.4859C42.0553 17.702 44.3408 9.89898 46.5482 2.0749C47.048 0.325307 44.4519 -0.214894 43.9618 1.51482C41.7607 9.23941 39.4751 16.9318 37.1044 24.5903C37.1044 16.7933 36.954 8.99947 36.6539 1.20855C36.6539 0.541024 36.1147 0 35.4493 0C34.7831 0 34.2438 0.541024 34.2438 1.20855C34.5378 10.1453 34.6062 19.0763 34.4497 28.0002C31.511 21.1207 28.2584 14.4569 24.8297 7.92109C24.124 6.58452 22.1157 7.76412 22.8015 9.1106C25.6036 14.5751 28.1505 20.1279 30.521 25.73C25.0158 19.0663 18.6376 13.1988 10.8096 9.37571C9.41887 8.68762 8.14509 10.7618 9.54571 11.4492C18.1768 15.6952 24.9757 22.4366 30.7855 29.9653C26.2136 26.9973 21.6189 24.0491 17.0015 21.1198C15.6198 20.2549 14.1409 22.3185 15.5317 23.2032C18.2161 24.9231 20.8707 26.6826 23.5353 28.4414C19.2833 27.085 15.0221 25.7743 10.751 24.5102L10.7517 24.511C10.1168 24.3952 9.49922 24.7846 9.32831 25.4087C9.15741 26.0327 9.49087 26.6843 10.0955 26.9091C17.5309 29.1501 24.8684 31.5969 32.1675 34.1916C22.1815 35.2401 12.1955 36.2688 2.20859 37.2777C0.611986 37.4347 0.582352 39.9608 2.20859 39.8037C10.4082 39.0173 18.6472 38.3292 26.8862 37.622C20.2308 41.9853 13.6743 46.4767 7.21568 51.0959C5.54082 52.2854 7.15719 55.027 8.87153 53.8185C15.729 48.9957 22.6942 44.3375 29.7671 39.8424C24.9537 46.9839 20.2581 54.1911 15.6794 61.4645C14.8272 62.8011 16.7861 64.3442 17.6391 62.9878C22.211 55.7807 26.9324 48.6421 31.8051 41.5724C29.1011 50.0902 26.3415 58.5584 23.5274 66.9771C22.9889 68.5788 25.2023 69.7881 25.7712 68.1666C28.6317 60.0817 31.3744 51.9402 34.0003 43.7431C33.6479 52.0383 33.1382 60.3329 32.472 68.6289C32.3254 70.4768 34.9019 70.4372 35.0683 68.6289C35.9198 59.6753 36.4978 50.7315 36.8009 41.808C39.5734 49.5523 42.0814 57.4049 44.4127 65.3946H44.4134C44.5972 66.056 45.2793 66.4438 45.9394 66.2625C46.6002 66.0811 46.9906 65.3991 46.8137 64.7362C45.2581 58.1807 43.3721 51.7089 41.161 45.3453C45.9904 53.0508 50.8691 60.8538 57.3353 67.1235C57.8306 67.583 58.597 67.5746 59.0824 67.1052C59.5685 66.6366 59.6057 65.8685 59.1667 65.3541C54.7474 60.2281 50.636 54.8421 46.8526 49.2268C44.8929 46.2092 42.934 43.1528 40.9059 40.1262C49.723 46.1704 58.5402 52.2833 67.3569 58.3474L67.3577 58.3466C67.9175 58.7208 68.6725 58.5806 69.0614 58.0304C69.451 57.481 69.3341 56.7197 68.7978 56.3128C60.5982 50.0819 52.1731 44.1649 43.669 38.4351C52.5842 41.7963 61.4301 45.3147 70.2678 48.9608C71.6974 49.5506 72.7455 47.084 71.3252 46.4356L71.3239 46.4395Z" fill="#484848"/>
<path d="M55.4668 51.4882C48.7832 48.4915 41.9602 45.7734 35.0518 43.2174C41.4964 42.5839 47.9169 41.8738 54.3073 40.9704C55.3971 40.8159 55.1418 38.9857 54.0521 39.0479C46.2482 39.4802 38.4744 40.3759 30.7093 41.2098C36.4685 37.6887 42.2815 34.2394 48.1489 30.862C49.5939 30.028 48.2957 27.8888 46.8279 28.6923C41.5373 31.5853 36.3269 34.6046 31.1965 37.7504C34.8486 32.5768 38.545 27.4284 42.2846 22.3066C42.5441 21.909 42.4548 21.3786 42.0792 21.0882C41.7035 20.7978 41.1679 20.8439 40.8474 21.1948C37.3032 25.7199 33.8596 30.3302 30.5166 35.0246C32.3816 28.9087 34.1843 22.7778 35.9254 16.6303C36.3196 15.2556 34.2719 14.8312 33.8854 16.1902C32.1493 22.2595 30.3466 28.3036 28.4767 34.3209C28.4767 28.1947 28.3581 22.071 28.1214 15.9496C28.1214 15.4251 27.6961 15 27.1713 15C26.6458 15 26.2205 15.4251 26.2205 15.9496C26.4523 22.9713 26.5063 29.9885 26.3829 37.0002C24.065 31.5948 21.4996 26.359 18.7952 21.2237C18.2387 20.1735 16.6547 21.1004 17.1956 22.1583C19.4056 26.4518 21.4145 30.8148 23.2842 35.2165C18.942 29.9806 13.9114 25.3705 7.73718 22.3666C6.64024 21.826 5.63556 23.4557 6.74028 23.9958C13.5479 27.3319 18.9104 32.6287 23.4928 38.5442C19.8868 36.2121 16.2628 33.8957 12.6209 31.5942C11.5311 30.9146 10.3647 32.5359 11.4616 33.2311C13.5789 34.5824 15.6727 35.9649 17.7743 37.3468C14.4206 36.2811 11.0597 35.2513 7.69092 34.258L7.69152 34.2586C7.19068 34.1676 6.70361 34.4736 6.56881 34.9639C6.43401 35.4543 6.69702 35.9662 7.1739 36.1428C13.0384 37.9036 18.8258 39.8262 24.5828 41.8648C16.7065 42.6887 8.83029 43.4969 0.953258 44.2896C-0.306039 44.413 -0.329412 46.3977 0.953258 46.2744C7.42052 45.6565 13.9189 45.1158 20.4173 44.5602C15.1679 47.9884 9.99666 51.5174 4.90251 55.1468C3.58149 56.0814 4.85638 58.2355 6.20853 57.286C11.6172 53.4966 17.1109 49.8366 22.6896 46.3047C18.8931 51.9159 15.1895 57.5787 11.5781 63.2935C10.906 64.3437 12.451 65.5562 13.1238 64.4904C16.7298 58.8277 20.4537 53.2188 24.297 47.664C22.1643 54.3566 19.9877 61.0102 17.7681 67.6248C17.3433 68.8834 19.0891 69.8335 19.5378 68.5595C21.794 62.207 23.9573 55.8102 26.0284 49.3696C25.7504 55.8873 25.3484 62.4044 24.823 68.9227C24.7074 70.3746 26.7395 70.3435 26.8708 68.9227C27.5424 61.8878 27.9983 54.8605 28.2373 47.8491C30.4241 53.9339 32.4022 60.1038 34.241 66.3814H34.2416C34.3865 66.9011 34.9245 67.2059 35.4452 67.0634C35.9664 66.9209 36.2743 66.385 36.1347 65.8641C34.9078 60.7134 33.4202 55.6284 31.6763 50.6285C35.4854 56.6828 39.3334 62.8137 44.4335 67.7399C44.8241 68.1009 45.4286 68.0943 45.8114 67.7255C46.1949 67.3573 46.2242 66.7538 45.8779 66.3497C42.3923 62.3221 39.1495 58.0902 36.1654 53.6782C34.6197 51.3072 33.0747 48.9058 31.4751 46.5277C38.4294 51.2767 45.3838 56.0797 52.3378 60.8444L52.3384 60.8438C52.78 61.1378 53.3755 61.0276 53.6822 60.5953C53.9895 60.1636 53.8973 59.5655 53.4743 59.2458C47.0071 54.3501 40.3619 49.701 33.6545 45.199C40.6861 47.8399 47.6632 50.6044 54.6338 53.4692C55.7613 53.9326 56.588 51.9946 55.4677 51.4851L55.4668 51.4882Z" fill="#D9D9D9"/>
</svg>
