<svg width="106" height="40" viewBox="0 0 106 40" fill="none" xmlns="http://www.w3.org/2000/svg">
<path d="M6.69875 14.0781V23.0469H11.1831C11.7977 23.0469 12.3758 22.9323 12.9175 22.7031C13.4592 22.4635 13.9331 22.1406 14.3394 21.7344C14.7456 21.3281 15.0633 20.8542 15.2925 20.3125C15.5321 19.7604 15.6519 19.1771 15.6519 18.5625C15.6519 17.9479 15.5321 17.3698 15.2925 16.8281C15.0633 16.276 14.7456 15.7969 14.3394 15.3906C13.9331 14.9844 13.4592 14.6667 12.9175 14.4375C12.3758 14.1979 11.7977 14.0781 11.1831 14.0781H6.69875ZM6.69875 32H2.21437V9.59375H11.1831C12.006 9.59375 12.7977 9.70312 13.5581 9.92188C14.3185 10.1302 15.0269 10.4323 15.6831 10.8281C16.3498 11.2135 16.954 11.6823 17.4956 12.2344C18.0477 12.776 18.5165 13.3802 18.9019 14.0469C19.2977 14.7135 19.5998 15.4271 19.8081 16.1875C20.0269 16.9479 20.1362 17.7396 20.1362 18.5625C20.1362 19.7917 19.9019 20.9531 19.4331 22.0469C18.9644 23.1302 18.3237 24.0781 17.5112 24.8906C16.6987 25.7031 15.7456 26.3438 14.6519 26.8125C13.5685 27.2812 12.4123 27.5156 11.1831 27.5156H6.69875V32ZM26.075 10.7188C26.075 11.1146 25.9969 11.4844 25.8406 11.8281C25.6948 12.1719 25.4917 12.474 25.2312 12.7344C24.9708 12.9844 24.6635 13.1875 24.3094 13.3438C23.9656 13.4896 23.5958 13.5625 23.2 13.5625C22.8042 13.5625 22.4292 13.4896 22.075 13.3438C21.7312 13.1875 21.4292 12.9844 21.1687 12.7344C20.9187 12.474 20.7156 12.1719 20.5594 11.8281C20.4135 11.4844 20.3406 11.1146 20.3406 10.7188C20.3406 10.3333 20.4135 9.96875 20.5594 9.625C20.7156 9.27083 20.9187 8.96875 21.1687 8.71875C21.4292 8.45833 21.7312 8.25521 22.075 8.10938C22.4292 7.95312 22.8042 7.875 23.2 7.875C23.5958 7.875 23.9656 7.95312 24.3094 8.10938C24.6635 8.25521 24.9708 8.45833 25.2312 8.71875C25.4917 8.96875 25.6948 9.27083 25.8406 9.625C25.9969 9.96875 26.075 10.3333 26.075 10.7188ZM25.3406 32H21.0437V15.2656H25.3406V32ZM31.6231 32H27.3263V8.60938H31.6231V23.3594L37.9825 15.2969H42.8888L37.3419 22.2656L42.8888 32H37.9825L34.5919 25.9219L31.6231 29.8594V32ZM52.4837 32H42.7337V27.75H52.4837C52.7754 27.75 53.0254 27.6458 53.2337 27.4375C53.4421 27.2292 53.5462 26.9792 53.5462 26.6875C53.5462 26.3854 53.4421 26.1875 53.2337 26.0938C53.0254 26 52.7754 25.9531 52.4837 25.9531H48.0462C47.3067 25.9531 46.614 25.8125 45.9681 25.5312C45.3223 25.25 44.7598 24.8698 44.2806 24.3906C43.8015 23.901 43.4212 23.3333 43.14 22.6875C42.8692 22.0417 42.7337 21.349 42.7337 20.6094C42.7337 19.8698 42.8692 19.1771 43.14 18.5312C43.4212 17.8854 43.8015 17.3229 44.2806 16.8438C44.7598 16.3646 45.3223 15.9896 45.9681 15.7188C46.614 15.4375 47.3067 15.2969 48.0462 15.2969H56.6869V19.5469H48.0462C47.7546 19.5469 47.5046 19.651 47.2962 19.8594C47.0879 20.0677 46.9837 20.3177 46.9837 20.6094C46.9837 20.9115 47.0879 21.1719 47.2962 21.3906C47.5046 21.599 47.7546 21.7031 48.0462 21.7031H52.4837C53.2129 21.7031 53.9004 21.8281 54.5462 22.0781C55.1921 22.3177 55.7546 22.6562 56.2337 23.0938C56.7129 23.5312 57.0931 24.0573 57.3744 24.6719C57.6556 25.2865 57.7962 25.9583 57.7962 26.6875C57.7962 27.4271 57.6556 28.1198 57.3744 28.7656C57.0931 29.401 56.7129 29.9635 56.2337 30.4531C55.7546 30.9323 55.1921 31.3125 54.5462 31.5938C53.9004 31.8646 53.2129 32 52.4837 32ZM74.9694 23.4844C74.9694 24.7344 74.7454 25.901 74.2975 26.9844C73.8496 28.0573 73.2402 28.9896 72.4694 29.7812C71.6985 30.5625 70.7923 31.1823 69.7506 31.6406C68.7194 32.0885 67.61 32.3125 66.4225 32.3125C65.2454 32.3125 64.136 32.0885 63.0944 31.6406C62.0631 31.1823 61.1569 30.5625 60.3756 29.7812C59.6048 28.9896 58.9954 28.0573 58.5475 26.9844C58.0996 25.901 57.8756 24.7344 57.8756 23.4844C57.8756 22.2135 58.0996 21.0365 58.5475 19.9531C58.9954 18.8698 59.6048 17.9375 60.3756 17.1562C61.1569 16.3646 62.0631 15.7448 63.0944 15.2969C64.136 14.849 65.2454 14.625 66.4225 14.625C67.61 14.625 68.7194 14.8385 69.7506 15.2656C70.7923 15.6823 71.6985 16.2812 72.4694 17.0625C73.2402 17.8333 73.8496 18.7656 74.2975 19.8594C74.7454 20.9427 74.9694 22.151 74.9694 23.4844ZM70.6725 23.4844C70.6725 22.7969 70.5579 22.1771 70.3288 21.625C70.11 21.0625 69.8079 20.5833 69.4225 20.1875C69.0371 19.7812 68.584 19.474 68.0631 19.2656C67.5527 19.0469 67.0058 18.9375 66.4225 18.9375C65.8392 18.9375 65.2871 19.0469 64.7663 19.2656C64.2558 19.474 63.8079 19.7812 63.4225 20.1875C63.0475 20.5833 62.7506 21.0625 62.5319 21.625C62.3131 22.1771 62.2038 22.7969 62.2038 23.4844C62.2038 24.1302 62.3131 24.7292 62.5319 25.2812C62.7506 25.8333 63.0475 26.3125 63.4225 26.7188C63.8079 27.125 64.2558 27.4479 64.7663 27.6875C65.2871 27.9167 65.8392 28.0312 66.4225 28.0312C67.0058 28.0312 67.5527 27.9219 68.0631 27.7031C68.584 27.4844 69.0371 27.1771 69.4225 26.7812C69.8079 26.3854 70.11 25.9062 70.3288 25.3438C70.5579 24.7812 70.6725 24.1615 70.6725 23.4844ZM88.3456 30.0469C88.0019 30.3594 87.6321 30.6562 87.2363 30.9375C86.8508 31.2083 86.4446 31.4479 86.0175 31.6562C85.5904 31.8542 85.1477 32.0104 84.6894 32.125C84.2415 32.25 83.7831 32.3125 83.3144 32.3125C82.2831 32.3125 81.3144 32.1302 80.4081 31.7656C79.5019 31.401 78.705 30.8854 78.0175 30.2188C77.3404 29.5417 76.804 28.724 76.4081 27.7656C76.0227 26.7969 75.83 25.7135 75.83 24.5156V15.2656H80.08V24.5156C80.08 25.0781 80.1633 25.5833 80.33 26.0312C80.5071 26.4688 80.7415 26.8385 81.0331 27.1406C81.3248 27.4427 81.6633 27.6719 82.0488 27.8281C82.4446 27.9844 82.8665 28.0625 83.3144 28.0625C83.7519 28.0625 84.1633 27.9635 84.5488 27.7656C84.9446 27.5573 85.2883 27.2865 85.58 26.9531C85.8717 26.6198 86.1008 26.2448 86.2675 25.8281C86.4342 25.401 86.5175 24.9635 86.5175 24.5156V15.2656H90.7831V32H89.7519L88.3456 30.0469ZM97.0656 32H92.7688V8.60938H97.0656V32ZM104.301 30.4062C104.301 30.7812 104.234 31.1354 104.098 31.4688C103.963 31.7917 103.775 32.0729 103.536 32.3125C103.296 32.5521 103.015 32.7396 102.692 32.875C102.369 33.0208 102.02 33.0938 101.645 33.0938C101.28 33.0938 100.931 33.0208 100.598 32.875C100.275 32.7396 99.9888 32.5521 99.7388 32.3125C99.4992 32.0729 99.3065 31.7917 99.1606 31.4688C99.0252 31.1354 98.9575 30.7812 98.9575 30.4062C98.9575 30.0417 99.0252 29.6979 99.1606 29.375C99.3065 29.0521 99.4992 28.7708 99.7388 28.5312C99.9888 28.2917 100.275 28.1042 100.598 27.9688C100.931 27.8229 101.28 27.75 101.645 27.75C102.02 27.75 102.369 27.8229 102.692 27.9688C103.015 28.1042 103.296 28.2917 103.536 28.5312C103.775 28.7708 103.963 29.0521 104.098 29.375C104.234 29.6979 104.301 30.0417 104.301 30.4062Z" fill="white"/>
</svg>
