<svg width="103" height="27" viewBox="0 0 103 27" fill="none" xmlns="http://www.w3.org/2000/svg">
<path d="M4.69875 7.07812V16.0469H9.18312C9.79771 16.0469 10.3758 15.9323 10.9175 15.7031C11.4592 15.4635 11.9331 15.1406 12.3394 14.7344C12.7456 14.3281 13.0633 13.8542 13.2925 13.3125C13.5321 12.7604 13.6519 12.1771 13.6519 11.5625C13.6519 10.9479 13.5321 10.3698 13.2925 9.82812C13.0633 9.27604 12.7456 8.79688 12.3394 8.39062C11.9331 7.98438 11.4592 7.66667 10.9175 7.4375C10.3758 7.19792 9.79771 7.07812 9.18312 7.07812H4.69875ZM4.69875 25H0.214375V2.59375H9.18312C10.006 2.59375 10.7977 2.70312 11.5581 2.92188C12.3185 3.13021 13.0269 3.43229 13.6831 3.82812C14.3498 4.21354 14.954 4.68229 15.4956 5.23438C16.0477 5.77604 16.5165 6.38021 16.9019 7.04688C17.2977 7.71354 17.5998 8.42708 17.8081 9.1875C18.0269 9.94792 18.1362 10.7396 18.1362 11.5625C18.1362 12.7917 17.9019 13.9531 17.4331 15.0469C16.9644 16.1302 16.3237 17.0781 15.5112 17.8906C14.6987 18.7031 13.7456 19.3438 12.6519 19.8125C11.5685 20.2812 10.4123 20.5156 9.18312 20.5156H4.69875V25ZM24.075 3.71875C24.075 4.11458 23.9969 4.48438 23.8406 4.82812C23.6948 5.17188 23.4917 5.47396 23.2312 5.73438C22.9708 5.98438 22.6635 6.1875 22.3094 6.34375C21.9656 6.48958 21.5958 6.5625 21.2 6.5625C20.8042 6.5625 20.4292 6.48958 20.075 6.34375C19.7312 6.1875 19.4292 5.98438 19.1687 5.73438C18.9187 5.47396 18.7156 5.17188 18.5594 4.82812C18.4135 4.48438 18.3406 4.11458 18.3406 3.71875C18.3406 3.33333 18.4135 2.96875 18.5594 2.625C18.7156 2.27083 18.9187 1.96875 19.1687 1.71875C19.4292 1.45833 19.7312 1.25521 20.075 1.10938C20.4292 0.953125 20.8042 0.875 21.2 0.875C21.5958 0.875 21.9656 0.953125 22.3094 1.10938C22.6635 1.25521 22.9708 1.45833 23.2312 1.71875C23.4917 1.96875 23.6948 2.27083 23.8406 2.625C23.9969 2.96875 24.075 3.33333 24.075 3.71875ZM23.3406 25H19.0437V8.26562H23.3406V25ZM29.6231 25H25.3263V1.60938H29.6231V16.3594L35.9825 8.29688H40.8888L35.3419 15.2656L40.8888 25H35.9825L32.5919 18.9219L29.6231 22.8594V25ZM50.4837 25H40.7337V20.75H50.4837C50.7754 20.75 51.0254 20.6458 51.2337 20.4375C51.4421 20.2292 51.5462 19.9792 51.5462 19.6875C51.5462 19.3854 51.4421 19.1875 51.2337 19.0938C51.0254 19 50.7754 18.9531 50.4837 18.9531H46.0462C45.3067 18.9531 44.614 18.8125 43.9681 18.5312C43.3223 18.25 42.7598 17.8698 42.2806 17.3906C41.8015 16.901 41.4212 16.3333 41.14 15.6875C40.8692 15.0417 40.7337 14.349 40.7337 13.6094C40.7337 12.8698 40.8692 12.1771 41.14 11.5312C41.4212 10.8854 41.8015 10.3229 42.2806 9.84375C42.7598 9.36458 43.3223 8.98958 43.9681 8.71875C44.614 8.4375 45.3067 8.29688 46.0462 8.29688H54.6869V12.5469H46.0462C45.7546 12.5469 45.5046 12.651 45.2962 12.8594C45.0879 13.0677 44.9837 13.3177 44.9837 13.6094C44.9837 13.9115 45.0879 14.1719 45.2962 14.3906C45.5046 14.599 45.7546 14.7031 46.0462 14.7031H50.4837C51.2129 14.7031 51.9004 14.8281 52.5462 15.0781C53.1921 15.3177 53.7546 15.6562 54.2337 16.0938C54.7129 16.5312 55.0931 17.0573 55.3744 17.6719C55.6556 18.2865 55.7962 18.9583 55.7962 19.6875C55.7962 20.4271 55.6556 21.1198 55.3744 21.7656C55.0931 22.401 54.7129 22.9635 54.2337 23.4531C53.7546 23.9323 53.1921 24.3125 52.5462 24.5938C51.9004 24.8646 51.2129 25 50.4837 25ZM72.9694 16.4844C72.9694 17.7344 72.7454 18.901 72.2975 19.9844C71.8496 21.0573 71.2402 21.9896 70.4694 22.7812C69.6985 23.5625 68.7923 24.1823 67.7506 24.6406C66.7194 25.0885 65.61 25.3125 64.4225 25.3125C63.2454 25.3125 62.136 25.0885 61.0944 24.6406C60.0631 24.1823 59.1569 23.5625 58.3756 22.7812C57.6048 21.9896 56.9954 21.0573 56.5475 19.9844C56.0996 18.901 55.8756 17.7344 55.8756 16.4844C55.8756 15.2135 56.0996 14.0365 56.5475 12.9531C56.9954 11.8698 57.6048 10.9375 58.3756 10.1562C59.1569 9.36458 60.0631 8.74479 61.0944 8.29688C62.136 7.84896 63.2454 7.625 64.4225 7.625C65.61 7.625 66.7194 7.83854 67.7506 8.26562C68.7923 8.68229 69.6985 9.28125 70.4694 10.0625C71.2402 10.8333 71.8496 11.7656 72.2975 12.8594C72.7454 13.9427 72.9694 15.151 72.9694 16.4844ZM68.6725 16.4844C68.6725 15.7969 68.5579 15.1771 68.3288 14.625C68.11 14.0625 67.8079 13.5833 67.4225 13.1875C67.0371 12.7812 66.584 12.474 66.0631 12.2656C65.5527 12.0469 65.0058 11.9375 64.4225 11.9375C63.8392 11.9375 63.2871 12.0469 62.7663 12.2656C62.2558 12.474 61.8079 12.7812 61.4225 13.1875C61.0475 13.5833 60.7506 14.0625 60.5319 14.625C60.3131 15.1771 60.2038 15.7969 60.2038 16.4844C60.2038 17.1302 60.3131 17.7292 60.5319 18.2812C60.7506 18.8333 61.0475 19.3125 61.4225 19.7188C61.8079 20.125 62.2558 20.4479 62.7663 20.6875C63.2871 20.9167 63.8392 21.0312 64.4225 21.0312C65.0058 21.0312 65.5527 20.9219 66.0631 20.7031C66.584 20.4844 67.0371 20.1771 67.4225 19.7812C67.8079 19.3854 68.11 18.9062 68.3288 18.3438C68.5579 17.7812 68.6725 17.1615 68.6725 16.4844ZM86.3456 23.0469C86.0019 23.3594 85.6321 23.6562 85.2363 23.9375C84.8508 24.2083 84.4446 24.4479 84.0175 24.6562C83.5904 24.8542 83.1477 25.0104 82.6894 25.125C82.2415 25.25 81.7831 25.3125 81.3144 25.3125C80.2831 25.3125 79.3144 25.1302 78.4081 24.7656C77.5019 24.401 76.705 23.8854 76.0175 23.2188C75.3404 22.5417 74.804 21.724 74.4081 20.7656C74.0227 19.7969 73.83 18.7135 73.83 17.5156V8.26562H78.08V17.5156C78.08 18.0781 78.1633 18.5833 78.33 19.0312C78.5071 19.4688 78.7415 19.8385 79.0331 20.1406C79.3248 20.4427 79.6633 20.6719 80.0488 20.8281C80.4446 20.9844 80.8665 21.0625 81.3144 21.0625C81.7519 21.0625 82.1633 20.9635 82.5488 20.7656C82.9446 20.5573 83.2883 20.2865 83.58 19.9531C83.8717 19.6198 84.1008 19.2448 84.2675 18.8281C84.4342 18.401 84.5175 17.9635 84.5175 17.5156V8.26562H88.7831V25H87.7519L86.3456 23.0469ZM95.0656 25H90.7688V1.60938H95.0656V25ZM102.301 23.4062C102.301 23.7812 102.234 24.1354 102.098 24.4688C101.963 24.7917 101.775 25.0729 101.536 25.3125C101.296 25.5521 101.015 25.7396 100.692 25.875C100.369 26.0208 100.02 26.0938 99.645 26.0938C99.2804 26.0938 98.9315 26.0208 98.5981 25.875C98.2752 25.7396 97.9888 25.5521 97.7388 25.3125C97.4992 25.0729 97.3065 24.7917 97.1606 24.4688C97.0252 24.1354 96.9575 23.7812 96.9575 23.4062C96.9575 23.0417 97.0252 22.6979 97.1606 22.375C97.3065 22.0521 97.4992 21.7708 97.7388 21.5312C97.9888 21.2917 98.2752 21.1042 98.5981 20.9688C98.9315 20.8229 99.2804 20.75 99.645 20.75C100.02 20.75 100.369 20.8229 100.692 20.9688C101.015 21.1042 101.296 21.2917 101.536 21.5312C101.775 21.7708 101.963 22.0521 102.098 22.375C102.234 22.6979 102.301 23.0417 102.301 23.4062Z" fill="white"/>
</svg>
