<svg width="33" height="33" viewBox="0 0 33 33" fill="none" xmlns="http://www.w3.org/2000/svg">
<circle cx="16.5" cy="16.5" r="15" stroke="#DEDEDE" stroke-width="3"/>
<path d="M17.2066 25.24C16.1532 25.24 15.1732 25.0467 14.2666 24.66C13.3732 24.2733 12.5932 23.74 11.9266 23.06C11.2732 22.3667 10.7599 21.5533 10.3866 20.62C10.0132 19.6867 9.82656 18.66 9.82656 17.54C9.82656 16.4333 10.0066 15.4133 10.3666 14.48C10.7399 13.5333 11.2599 12.72 11.9266 12.04C12.5932 11.3467 13.3732 10.8133 14.2666 10.44C15.1599 10.0533 16.1399 9.86 17.2066 9.86C18.2599 9.86 19.1999 10.04 20.0266 10.4C20.8666 10.76 21.5732 11.2333 22.1466 11.82C22.7199 12.3933 23.1332 13.02 23.3866 13.7L21.2666 14.7C20.9466 13.9 20.4332 13.2533 19.7266 12.76C19.0332 12.2533 18.1932 12 17.2066 12C16.2199 12 15.3466 12.2333 14.5866 12.7C13.8266 13.1667 13.2332 13.8133 12.8066 14.64C12.3932 15.4667 12.1866 16.4333 12.1866 17.54C12.1866 18.6467 12.3932 19.62 12.8066 20.46C13.2332 21.2867 13.8266 21.9333 14.5866 22.4C15.3466 22.8533 16.2199 23.08 17.2066 23.08C18.1932 23.08 19.0332 22.8333 19.7266 22.34C20.4332 21.8467 20.9466 21.2 21.2666 20.4L23.3866 21.4C23.1332 22.0667 22.7199 22.6933 22.1466 23.28C21.5732 23.8667 20.8666 24.34 20.0266 24.7C19.1999 25.06 18.2599 25.24 17.2066 25.24Z" fill="#DEDEDE"/>
</svg>
