<svg width="28" height="26" viewBox="0 0 28 26" fill="none" xmlns="http://www.w3.org/2000/svg">
<path d="M15.0101 6.85826L21.1567 8.34231M13.6943 11.2906L16.7663 12.0332M13.8475 19.6426L15.0758 19.9404C18.5521 20.7811 20.2902 21.2002 21.6601 20.4868C23.0287 19.7746 23.4948 18.2064 24.4257 15.0725L25.7428 10.639C26.6749 7.50396 27.1397 5.937 26.3492 4.70165C25.5587 3.4663 23.8218 3.04712 20.3443 2.20759L19.116 1.90985C15.6397 1.06916 13.9016 0.649979 12.533 1.3634C11.1631 2.07565 10.697 3.64378 9.76483 6.77769L8.449 11.2112C7.51685 14.3463 7.05077 15.9132 7.84259 17.1486C8.63312 18.3827 10.3713 18.8031 13.8475 19.6426Z" stroke="#DEDEDE" stroke-width="1.5" stroke-linecap="round" stroke-linejoin="round"/>
<path d="M13.8751 23.1223L12.6494 23.4259C9.18085 24.2818 7.44787 24.7103 6.08054 23.9828C4.71578 23.2566 4.2497 21.6593 3.32141 18.4623L2.00686 13.9412C1.07728 10.7454 0.612495 9.14696 1.40174 7.88826C2.08411 6.79886 3.57505 6.83856 5.50631 6.83856" stroke="#DEDEDE" stroke-width="1.5" stroke-linecap="round" stroke-linejoin="round"/>
</svg>
