<svg width="22" height="22" viewBox="0 0 22 22" fill="none" xmlns="http://www.w3.org/2000/svg">
<path d="M1 10.6422C1 6.09688 1 3.82421 2.464 2.41162C3.93 1 6.286 1 11 1C15.714 1 18.071 1 19.535 2.41162C21 3.82517 21 6.09688 21 10.6422C21 15.1876 21 17.4603 19.535 18.8719C18.072 20.2845 15.714 20.2845 11 20.2845C6.286 20.2845 3.929 20.2845 2.464 18.8719C1 17.4612 1 15.1876 1 10.6422Z" stroke="#DEDEDE" stroke-width="1.5"/>
<path d="M15 8.71383C16.1046 8.71383 17 7.85043 17 6.78538C17 5.72033 16.1046 4.85693 15 4.85693C13.8954 4.85693 13 5.72033 13 6.78538C13 7.85043 13.8954 8.71383 15 8.71383Z" stroke="#DEDEDE" stroke-width="1.5"/>
<path d="M1 11.1244L2.752 9.64626C3.19114 9.27607 3.75974 9.08059 4.34272 9.09938C4.9257 9.11818 5.47949 9.34985 5.892 9.74751L10.182 13.884C10.5149 14.205 10.9546 14.4024 11.4235 14.4415C11.8925 14.4807 12.3608 14.3591 12.746 14.0981L13.045 13.8956C13.6006 13.5193 14.2721 13.3359 14.9498 13.3753C15.6275 13.4147 16.2713 13.6746 16.776 14.1125L20 16.9098" stroke="#DEDEDE" stroke-width="1.5" stroke-linecap="round"/>
</svg>
