<svg width="54" height="54" viewBox="0 0 54 54" fill="none" xmlns="http://www.w3.org/2000/svg">
<circle cx="27" cy="27" r="26.5" stroke="#D9D9D9"/>
<path d="M22.09 17H30.91C34.27 17 37 19.6323 37 22.8721V31.3766C37 32.9339 36.3584 34.4275 35.2163 35.5288C34.0742 36.63 32.5252 37.2487 30.91 37.2487H22.09C18.73 37.2487 16 34.6164 16 31.3766V22.8721C16 21.3147 16.6416 19.8211 17.7837 18.7199C18.9258 17.6187 20.4748 17 22.09 17ZM21.88 19.0249C20.8775 19.0249 19.916 19.4089 19.2071 20.0924C18.4982 20.7759 18.1 21.703 18.1 22.6696V31.5791C18.1 33.5938 19.7905 35.2238 21.88 35.2238H31.12C32.1225 35.2238 33.084 34.8398 33.7929 34.1563C34.5018 33.4728 34.9 32.5457 34.9 31.5791V22.6696C34.9 20.6549 33.2095 19.0249 31.12 19.0249H21.88ZM32.0125 20.5435C32.3606 20.5435 32.6944 20.6769 32.9406 20.9142C33.1867 21.1515 33.325 21.4734 33.325 21.8091C33.325 22.1447 33.1867 22.4666 32.9406 22.7039C32.6944 22.9413 32.3606 23.0746 32.0125 23.0746C31.6644 23.0746 31.3306 22.9413 31.0844 22.7039C30.8383 22.4666 30.7 22.1447 30.7 21.8091C30.7 21.4734 30.8383 21.1515 31.0844 20.9142C31.3306 20.6769 31.6644 20.5435 32.0125 20.5435ZM26.5 22.0622C27.8924 22.0622 29.2277 22.5955 30.2123 23.5448C31.1969 24.4942 31.75 25.7818 31.75 27.1243C31.75 28.4669 31.1969 29.7545 30.2123 30.7038C29.2277 31.6532 27.8924 32.1865 26.5 32.1865C25.1076 32.1865 23.7723 31.6532 22.7877 30.7038C21.8031 29.7545 21.25 28.4669 21.25 27.1243C21.25 25.7818 21.8031 24.4942 22.7877 23.5448C23.7723 22.5955 25.1076 22.0622 26.5 22.0622ZM26.5 24.087C25.6646 24.087 24.8634 24.407 24.2726 24.9766C23.6819 25.5462 23.35 26.3188 23.35 27.1243C23.35 27.9299 23.6819 28.7024 24.2726 29.272C24.8634 29.8416 25.6646 30.1616 26.5 30.1616C27.3354 30.1616 28.1366 29.8416 28.7274 29.272C29.3181 28.7024 29.65 27.9299 29.65 27.1243C29.65 26.3188 29.3181 25.5462 28.7274 24.9766C28.1366 24.407 27.3354 24.087 26.5 24.087Z" fill="#D9D9D9"/>
</svg>
