<svg width="38" height="38" viewBox="0 0 38 38" fill="none" xmlns="http://www.w3.org/2000/svg">
<rect x="10.5" y="10.5" width="16" height="16" stroke="black"/>
<path d="M24.6612 20.7663L21.5255 19.3631C21.4039 19.3105 21.2712 19.289 21.1392 19.3006C21.0073 19.3122 20.8803 19.3565 20.7698 19.4295C20.7609 19.4351 20.7525 19.4414 20.7445 19.4481L19.0977 20.852C19.061 20.8743 19.0194 20.8873 18.9766 20.8897C18.9337 20.8921 18.8909 20.884 18.852 20.8659C17.7735 20.3453 16.6572 19.2376 16.1366 18.1718C16.1182 18.1332 16.1096 18.0905 16.1117 18.0478C16.1138 18.005 16.1265 17.9634 16.1486 17.9268L17.5564 16.2527C17.563 16.2447 17.569 16.2361 17.575 16.2274C17.6477 16.1171 17.6919 15.9903 17.7035 15.8586C17.7151 15.7269 17.6937 15.5944 17.6414 15.4731L16.2356 12.3427C16.1677 12.1841 16.0502 12.0519 15.9008 11.9658C15.7513 11.8797 15.578 11.8444 15.4068 11.8652C14.5711 11.9754 13.8041 12.386 13.2491 13.0204C12.694 13.6547 12.3889 14.4694 12.3906 15.3123C12.3906 20.4389 16.5609 24.6092 21.6875 24.6092C22.5304 24.611 23.3451 24.3058 23.9795 23.7508C24.6139 23.1957 25.0245 22.4287 25.1347 21.5931C25.1553 21.4226 25.1204 21.2501 25.0351 21.1011C24.9498 20.9522 24.8186 20.8347 24.6612 20.7663ZM24.6094 21.5266C24.5156 22.2344 24.1673 22.8837 23.6295 23.3533C23.0918 23.8228 22.4014 24.0804 21.6875 24.078C16.8545 24.078 12.9219 20.1454 12.9219 15.3123C12.9194 14.5984 13.177 13.9081 13.6466 13.3703C14.1161 12.8326 14.7655 12.4842 15.4732 12.3905C15.4838 12.3898 15.4945 12.3898 15.5051 12.3905C15.5575 12.3909 15.6086 12.4069 15.652 12.4363C15.6953 12.4657 15.729 12.5073 15.7488 12.5558L17.1506 15.6862C17.167 15.7245 17.1741 15.766 17.1715 15.8076C17.1688 15.8491 17.1565 15.8894 17.1354 15.9253L15.7282 17.5987C15.7216 17.6073 15.7149 17.6153 15.709 17.6246C15.634 17.7393 15.5898 17.8713 15.5808 18.008C15.5717 18.1446 15.598 18.2813 15.6572 18.4049C16.2342 19.5863 17.4242 20.7676 18.6189 21.3447C18.7433 21.4035 18.8807 21.429 19.0179 21.4189C19.1551 21.4088 19.2874 21.3633 19.4018 21.2869L19.4264 21.2683L21.0752 19.8658C21.1105 19.8443 21.1504 19.8314 21.1916 19.8283C21.2328 19.8252 21.2742 19.8319 21.3123 19.8479L24.4474 21.2531C24.5003 21.2751 24.5446 21.3136 24.5738 21.3629C24.603 21.4122 24.6155 21.4697 24.6094 21.5266Z" fill="#D9D9D9"/>
<circle cx="19" cy="19" r="18.5" stroke="#484848"/>
</svg>
