<svg width="54" height="54" viewBox="0 0 54 54" fill="none" xmlns="http://www.w3.org/2000/svg">
<circle cx="27" cy="27" r="26.5" stroke="#D9D9D9"/>
<path d="M25 30.4992L30.19 27.6065L25 24.7138V30.4992ZM36.56 22.9493C36.69 23.4025 36.78 24.0099 36.84 24.7813C36.91 25.5527 36.94 26.218 36.94 26.7965L37 27.6065C37 29.7181 36.84 31.2705 36.56 32.2637C36.31 33.1315 35.73 33.6907 34.83 33.9318C34.36 34.0571 33.5 34.1439 32.18 34.2018C30.88 34.2693 29.69 34.2982 28.59 34.2982L27 34.3561C22.81 34.3561 20.2 34.2018 19.17 33.9318C18.27 33.6907 17.69 33.1315 17.44 32.2637C17.31 31.8105 17.22 31.203 17.16 30.4317C17.09 29.6603 17.06 28.995 17.06 28.4164L17 27.6065C17 25.4948 17.16 23.9424 17.44 22.9493C17.69 22.0815 18.27 21.5222 19.17 21.2812C19.64 21.1558 20.5 21.0691 21.82 21.0112C23.12 20.9437 24.31 20.9148 25.41 20.9148L27 20.8569C31.19 20.8569 33.8 21.0112 34.83 21.2812C35.73 21.5222 36.31 22.0815 36.56 22.9493Z" fill="#D9D9D9"/>
</svg>
