<svg width="63" height="75" viewBox="0 0 63 75" fill="none" xmlns="http://www.w3.org/2000/svg">
<path d="M38.4181 46.3125L31.9433 19.3271M38.4181 46.3125L59.5775 52.5878C59.8938 52.6818 60.2263 52.6811 60.5418 52.5857C60.8573 52.4903 61.1447 52.3036 61.3753 52.0443C61.6059 51.7849 61.7716 51.462 61.8559 51.1079C61.9401 50.7537 61.9399 50.3807 61.8552 50.0262L50.5776 3.0244C50.4927 2.66969 50.3261 2.34601 50.0947 2.0858C49.8633 1.82559 49.5752 1.63798 49.2592 1.54178C48.9432 1.44557 48.6104 1.44414 48.2942 1.53763C47.9779 1.63112 47.6894 1.81625 47.4574 2.07447L31.9433 19.3271M38.4181 46.3125L17.3824 52.607M31.9433 19.3271L10.9076 25.6216C7.71957 26.5755 5.00321 28.912 3.35608 32.1169C1.70896 35.3218 1.26598 39.1327 2.1246 42.7112C2.98322 46.2896 5.0731 49.3426 7.9345 51.1984C10.7959 53.0543 14.1944 53.5609 17.3824 52.607M17.3824 52.607L23.9469 69.8041C24.6016 71.4725 25.8162 72.7853 27.3266 73.4573C28.8371 74.1293 30.5214 74.1061 32.0136 73.3929C33.5058 72.6797 34.6853 71.334 35.2957 69.6483C35.9061 67.9625 35.8982 66.073 35.2737 64.3902L29.4028 49.0101L17.3824 52.607Z" stroke="white" stroke-width="1.5"/>
</svg>
