<svg width="49" height="62" viewBox="0 0 49 62" fill="none" xmlns="http://www.w3.org/2000/svg">
<path d="M25.708 59.6965L25.6759 59.7024L25.4857 59.8072L25.4321 59.8191L25.3946 59.8072L25.2044 59.6995C25.1758 59.6915 25.1544 59.6975 25.1401 59.7174L25.1294 59.7473L25.0838 61.0278L25.0972 61.0876L25.124 61.1265L25.4026 61.3479L25.4428 61.3599L25.475 61.3479L25.7536 61.1265L25.7857 61.0786L25.7964 61.0278L25.7509 59.7503C25.7438 59.7184 25.7295 59.7004 25.708 59.6965ZM26.4153 59.3584L26.3778 59.3644L25.8849 59.6426L25.8581 59.6725L25.85 59.7054L25.8982 60.9919L25.9116 61.0278L25.9331 61.0517L26.4716 61.327C26.5055 61.3369 26.5314 61.329 26.5492 61.303L26.56 61.2611L26.4689 59.4242C26.4599 59.3863 26.4421 59.3644 26.4153 59.3584ZM24.4998 59.3644C24.488 59.3564 24.4739 59.3538 24.4604 59.3571C24.4469 59.3605 24.4351 59.3695 24.4275 59.3823L24.4114 59.4242L24.3203 61.2611C24.3221 61.297 24.3373 61.321 24.3659 61.3329L24.406 61.327L24.9445 61.0487L24.9713 61.0248L24.9793 60.9919L25.0276 59.7054L25.0195 59.6695L24.9927 59.6396L24.4998 59.3644Z" fill="white"/>
<path d="M7.14932 30.5996C7.79295 30.3484 8.49814 30.3807 9.1212 30.6899C9.74426 30.9991 10.2383 31.562 10.5027 32.2638C10.767 32.9657 10.7818 33.7537 10.5441 34.4673C10.3063 35.1809 9.83378 35.7664 9.22287 36.1045L8.93354 36.2421C8.09617 36.5727 7.34548 37.1305 6.74894 37.8653C6.15241 38.6002 5.72871 39.489 5.51593 40.452C5.30315 41.415 5.30796 42.4219 5.52992 43.3823C5.75188 44.3426 6.18404 45.2264 6.78756 45.9541C7.39108 46.6818 8.14705 47.2306 8.98753 47.5512C9.82801 47.8719 10.7267 47.9543 11.6027 47.7911C12.4788 47.6278 13.3048 47.2241 14.0065 46.6161C14.7083 46.0081 15.2637 45.2149 15.623 44.3078L15.7757 43.88C15.8854 43.4992 16.0624 43.1469 16.2962 42.8438C16.53 42.5407 16.8158 42.293 17.1368 42.1154C17.4578 41.9379 17.8074 41.834 18.1649 41.8099C18.5225 41.7859 18.8807 41.8421 19.2185 41.9754C19.5562 42.1087 19.8666 42.3162 20.1313 42.5858C20.396 42.8553 20.6095 43.1814 20.7594 43.5448C20.9092 43.9081 20.9923 44.3013 21.0037 44.7012C21.0151 45.101 20.9545 45.4993 20.8257 45.8725C20.2226 47.7795 19.1967 49.4847 17.8438 50.8291C16.4908 52.1734 14.8549 53.113 13.0888 53.5602C11.3226 54.0073 9.48379 53.9475 7.74396 53.3862C6.00412 52.825 4.41999 51.7806 3.13944 50.3505C1.85889 48.9205 0.923664 47.1514 0.421064 45.2085C-0.0815358 43.2655 -0.135123 41.2121 0.265304 39.2397C0.665731 37.2674 1.50712 35.4405 2.71092 33.9297C3.91473 32.4188 5.44171 31.2731 7.14932 30.5996ZM41.0817 30.5996C42.7893 31.2731 44.3163 32.4188 45.5201 33.9297C46.7239 35.4405 47.5653 37.2674 47.9657 39.2397C48.3661 41.2121 48.3125 43.2655 47.8099 45.2085C47.3073 47.1514 46.3721 48.9205 45.0915 50.3505C43.811 51.7806 42.2269 52.825 40.487 53.3862C38.7472 53.9475 36.9084 54.0073 35.1422 53.5602C33.3761 53.113 31.7402 52.1734 30.3872 50.8291C29.0343 49.4847 28.0084 47.7795 27.4053 45.8725C27.1804 45.1538 27.2093 44.3663 27.4861 43.6705C27.763 42.9747 28.2671 42.4229 28.8955 42.1277C29.524 41.8325 30.2296 41.816 30.8686 42.0815C31.5076 42.3471 32.0319 42.8747 32.3347 43.5569L32.4579 43.88C32.754 44.8152 33.2535 45.6535 33.9115 46.3196C34.5695 46.9858 35.3655 47.459 36.2278 47.6966C37.0901 47.9342 37.9917 47.9289 38.8517 47.681C39.7117 47.4331 40.5031 46.9505 41.1547 46.2765C41.8063 45.6026 42.2978 44.7583 42.5849 43.8197C42.872 42.8811 42.9458 41.8776 42.7996 40.8993C42.6535 39.9209 42.2919 38.9985 41.7475 38.2148C41.2031 37.4312 40.4928 36.8109 39.6805 36.4096L39.2974 36.2421C38.9657 36.1113 38.6603 35.9087 38.3986 35.6461C38.1369 35.3834 37.9241 35.0658 37.7724 34.7113C37.4659 33.9954 37.4266 33.1728 37.6633 32.4246C37.8999 31.6764 38.3929 31.0637 39.034 30.7215C39.6751 30.3793 40.4117 30.3354 41.0817 30.5996ZM13.4289 10.89L13.7049 11.0994L20.8257 17.2863C21.7045 18.0499 22.7745 18.4886 23.8869 18.5417C24.9994 18.5948 26.099 18.2595 27.0329 17.5825L27.4053 17.2863L34.5261 11.1024C35.0188 10.674 35.6299 10.4511 36.254 10.4724C36.8781 10.4937 37.476 10.7578 37.9443 11.219C38.4126 11.6802 38.7219 12.3096 38.8188 12.9985C38.9157 13.6873 38.7941 14.3923 38.475 14.9917L38.2875 15.2998L32.7473 23.2519C32.0636 24.2333 31.6707 25.4282 31.6231 26.6705C31.5756 27.9128 31.8758 29.1408 32.482 30.1838L32.7473 30.5996L38.2848 38.5517C38.6684 39.1019 38.868 39.7844 38.8489 40.4813C38.8298 41.1783 38.5934 41.8459 38.1804 42.3689C37.7674 42.8918 37.2037 43.2373 36.5869 43.3455C35.9701 43.4537 35.3388 43.3179 34.8021 42.9616L34.5261 42.7521L27.4053 36.5652C26.5265 35.8017 25.4565 35.3629 24.3441 35.3098C23.2316 35.2567 22.132 35.592 21.1981 36.269L20.8257 36.5652L13.7049 42.7491C13.2122 43.1776 12.6011 43.4004 11.977 43.3791C11.3529 43.3578 10.755 43.0938 10.2867 42.6325C9.81843 42.1713 9.50911 41.5419 9.41221 40.8531C9.31531 40.1642 9.43691 39.4592 9.756 38.8599L9.94353 38.5517L15.4837 30.5996C16.1674 29.6182 16.5603 28.4233 16.6079 27.181C16.6554 25.9387 16.3552 24.7107 15.7489 23.6678L15.4837 23.2519L9.94621 15.2998C9.5792 14.7743 9.3798 14.1271 9.37964 13.4607C9.37948 12.7943 9.57856 12.1469 9.94531 11.6212C10.3121 11.0955 10.8255 10.7216 11.4041 10.5588C11.9828 10.396 12.5936 10.4536 13.1396 10.7224L13.4289 10.89ZM37.5105 1.25391e-06C40.0394 -0.00129093 42.4871 0.996175 44.4209 2.81598C46.3546 4.63578 47.6498 7.16066 48.0773 9.94405C48.5048 12.7274 48.037 15.59 46.7568 18.0254C45.4766 20.4608 43.4663 22.3121 41.0817 23.2519C40.438 23.5031 39.7329 23.4708 39.1098 23.1616C38.4867 22.8524 37.9927 22.2896 37.7283 21.5877C37.4639 20.8859 37.4491 20.0979 37.6869 19.3843C37.9247 18.6707 38.3972 18.0852 39.0081 17.7471L39.2974 17.6095C40.1348 17.2788 40.8855 16.721 41.482 15.9862C42.0786 15.2514 42.5023 14.3625 42.7151 13.3996C42.9278 12.4366 42.923 11.4297 42.7011 10.4693C42.4791 9.5089 42.047 8.62516 41.4434 7.89747C40.8399 7.16978 40.0839 6.62096 39.2435 6.30032C38.403 5.97967 37.5043 5.89726 36.6283 6.06049C35.7522 6.22372 34.9262 6.62746 34.2245 7.23545C33.5227 7.84344 32.9672 8.63661 32.608 9.54369L32.4579 9.97151C32.2213 10.7197 31.7283 11.3324 31.0872 11.6746C30.4461 12.0169 29.7095 12.0607 29.0395 11.7965C28.3695 11.5323 27.8209 10.9816 27.5144 10.2657C27.208 9.54979 27.1687 8.72724 27.4053 7.979C28.144 5.64527 29.5124 3.62473 31.3222 2.19574C33.132 0.766739 35.2941 -0.000398482 37.5105 1.25391e-06ZM10.7204 1.25391e-06C12.9369 -0.000398482 15.099 0.766739 16.9088 2.19574C18.7186 3.62473 20.087 5.64527 20.8257 7.979C21.0506 8.69777 21.0217 9.48528 20.7448 10.1811C20.468 10.8769 19.9639 11.4286 19.3355 11.7238C18.707 12.0191 18.0014 12.0356 17.3623 11.77C16.7233 11.5045 16.1991 10.9768 15.8963 10.2946L15.7731 9.97151C15.477 9.03639 14.9775 8.19807 14.3195 7.53189C13.6615 6.86571 12.8655 6.39255 12.0032 6.15493C11.1409 5.91732 10.2393 5.92268 9.37928 6.17056C8.51929 6.41843 7.72793 6.90104 7.07631 7.57501C6.42469 8.24899 5.93324 9.09321 5.64611 10.0318C5.35899 10.9704 5.28519 11.974 5.43135 12.9523C5.57752 13.9306 5.93906 14.8531 6.48349 15.6367C7.02793 16.4204 7.73819 17.0407 8.55044 17.4419L8.93354 17.6124C9.58421 17.8926 10.1114 18.4451 10.4031 19.1524C10.6948 19.8598 10.7281 20.6663 10.4958 21.4006C10.2634 22.1348 9.7839 22.739 9.15901 23.0847C8.53413 23.4304 7.81317 23.4904 7.14932 23.2519C4.7678 22.309 2.76114 20.4568 1.48353 18.0224C0.205929 15.5879 -0.260468 12.7277 0.16667 9.94653C0.593807 7.1654 1.88701 4.64219 3.81802 2.82229C5.74903 1.00239 8.19367 0.00281595 10.7204 1.25391e-06Z" fill="white"/>
</svg>
