<svg width="53" height="59" viewBox="0 0 53 59" fill="none" xmlns="http://www.w3.org/2000/svg">
<path d="M49.45 57.9539V16.6198C49.45 13.493 49.45 11.9325 48.6442 10.6112C47.8409 9.29271 46.3594 8.42701 43.3937 6.69277L39.6198 4.48867C34.9686 1.76629 32.6404 0.405094 30.8477 1.24801C29.05 2.09092 29.05 4.54562 29.05 9.44933V20.934M52 57.9539H1M49.45 18.0863H44.35M49.45 26.6294H44.35M49.45 35.1724H44.35" stroke="#C8C8C8" stroke-width="1.5" stroke-linecap="round" stroke-linejoin="round"/>
<path d="M25.2238 32.3243H27.7738M25.2238 40.8674H27.7738M16.2988 32.3243C16.2988 26.9536 16.2988 24.2711 17.7931 22.6023C19.2874 20.9336 21.6895 20.9336 26.4988 20.9336C31.3081 20.9336 33.7102 20.9336 35.2045 22.6023C36.6988 24.2711 36.6988 26.9536 36.6988 32.3243V57.9534H16.2988V32.3243Z" stroke="#C8C8C8" stroke-width="1.5" stroke-linecap="round" stroke-linejoin="round"/>
<path d="M4.825 40.8673C6.93749 40.8673 8.65 38.3174 8.65 35.1719C8.65 32.0265 6.93749 29.4766 4.825 29.4766C2.71251 29.4766 1 32.0265 1 35.1719C1 38.3174 2.71251 40.8673 4.825 40.8673Z" stroke="#C8C8C8" stroke-width="1.5" stroke-linecap="round" stroke-linejoin="round"/>
<path d="M4.82617 40.8672V57.9533" stroke="#C8C8C8" stroke-width="1.5" stroke-linecap="round" stroke-linejoin="round"/>
</svg>
