<svg width="44" height="44" viewBox="0 0 44 44" fill="none" xmlns="http://www.w3.org/2000/svg">
<circle cx="22" cy="22" r="21" fill="#333333" stroke="#333333" stroke-width="2"/>
<path d="M21.7525 30H10.9673V14.5957H14.0504V26.917H21.7525V30ZM25.1264 34.3828H22.1723V18.4951H22.8813L24.0522 19.8809C24.3172 19.6302 24.6072 19.3939 24.9223 19.1719C25.2374 18.9499 25.5633 18.7601 25.8998 18.6025C26.2436 18.4378 26.5981 18.3089 26.9633 18.2158C27.3286 18.1227 27.6974 18.0762 28.0698 18.0762C28.879 18.0762 29.6381 18.223 30.3471 18.5166C31.0633 18.8031 31.6863 19.2113 32.2162 19.7412C32.7534 20.2712 33.1759 20.9121 33.4838 21.6641C33.7918 22.4089 33.9457 23.236 33.9457 24.1455C33.9457 25.0908 33.7918 25.943 33.4838 26.7021C33.1759 27.4541 32.7534 28.0951 32.2162 28.625C31.6863 29.1478 31.0633 29.5488 30.3471 29.8281C29.6381 30.1074 28.879 30.2471 28.0698 30.2471C27.812 30.2471 27.5541 30.2184 27.2963 30.1611C27.0457 30.1038 26.795 30.0286 26.5444 29.9355C26.3009 29.8353 26.0574 29.7243 25.8139 29.6025C25.5776 29.4808 25.3484 29.3555 25.1264 29.2266V34.3828ZM31.0024 24.1455C31.0024 23.6585 30.9236 23.2217 30.7661 22.835C30.6157 22.4482 30.408 22.1224 30.143 21.8574C29.878 21.5853 29.5665 21.3776 29.2084 21.2344C28.8504 21.0911 28.4708 21.0195 28.0698 21.0195C27.6687 21.0195 27.2892 21.0911 26.9311 21.2344C26.5802 21.3776 26.2722 21.5853 26.0073 21.8574C25.7423 22.1224 25.531 22.4482 25.3735 22.835C25.2231 23.2217 25.1479 23.6585 25.1479 24.1455C25.1479 24.611 25.2231 25.0371 25.3735 25.4238C25.531 25.8105 25.7423 26.14 26.0073 26.4121C26.2722 26.6842 26.5802 26.8955 26.9311 27.0459C27.2892 27.1963 27.6687 27.2715 28.0698 27.2715C28.4708 27.2715 28.8504 27.1963 29.2084 27.0459C29.5665 26.8955 29.878 26.6842 30.143 26.4121C30.408 26.14 30.6157 25.8105 30.7661 25.4238C30.9236 25.0371 31.0024 24.611 31.0024 24.1455Z" fill="white"/>
</svg>
